<svg width="56" height="64" viewBox="0 0 56 64" fill="none" xmlns="http://www.w3.org/2000/svg">
<g clip-path="url(#clip0)">
<path d="M27.9999 62.7411C27.1774 62.7411 26.3426 62.5202 25.6182 62.1027L18.0435 57.6217C16.914 56.9833 17.4665 56.7623 17.8348 56.6396C19.3448 56.1117 19.6517 56.0012 21.26 55.0804C21.4319 54.9822 21.6528 55.019 21.8247 55.1295L27.6439 58.5793C27.8526 58.7021 28.1473 58.7021 28.3437 58.5793L51.0189 45.4923C51.2276 45.3695 51.3627 45.124 51.3627 44.8784V18.7043C51.3627 18.4465 51.2276 18.2132 51.0066 18.0782L28.3437 5.00341C28.135 4.88064 27.8526 4.88064 27.6439 5.00341L4.99324 18.0905C4.77226 18.2132 4.63722 18.4588 4.63722 18.7166V44.8784C4.63722 45.124 4.77226 45.3695 4.99324 45.48L11.2053 49.0648C14.5814 50.7467 16.6439 48.7702 16.6439 46.769V20.9387C16.6439 20.5704 16.9386 20.288 17.3069 20.288H20.1796C20.5357 20.288 20.8426 20.5704 20.8426 20.9387V46.7813C20.8426 51.2746 18.3872 53.8527 14.1272 53.8527C12.8136 53.8527 11.7823 53.8527 8.90954 52.4286L2.96757 49.0034C1.49436 48.1563 0.585876 46.5726 0.585876 44.8661V18.7043C0.585876 17.0101 1.49436 15.4141 2.96757 14.567L25.6182 1.47997C27.0546 0.669702 28.9575 0.669702 30.3816 1.47997L53.0569 14.5793C54.5301 15.4264 55.4386 17.0101 55.4386 18.7166V44.8784C55.4386 46.5726 54.5301 48.1563 53.0569 49.0157L30.3816 62.1027C29.6573 62.5202 28.8348 62.7411 27.9999 62.7411ZM46.3046 36.9476C46.3046 32.0492 42.9899 30.7478 36.029 29.8271C28.9821 28.894 28.27 28.4152 28.27 26.7702C28.27 25.4074 28.8716 23.5905 34.0892 23.5905C38.7421 23.5905 40.4609 24.5972 41.1729 27.74C41.2343 28.0347 41.5044 28.2556 41.8113 28.2556H44.7578C44.9419 28.2556 45.1138 28.182 45.2365 28.0469C45.3593 27.9119 45.4207 27.7277 45.4084 27.5436C44.9542 22.1295 41.3571 19.6128 34.0892 19.6128C27.6194 19.6128 23.7644 22.3382 23.7644 26.9175C23.7644 31.8773 27.6071 33.2523 33.8069 33.8661C41.2343 34.5905 41.8113 35.6831 41.8113 37.144C41.8113 39.6731 39.7734 40.7534 34.9977 40.7534C28.9944 40.7534 27.6807 39.2434 27.2388 36.2601C27.1897 35.9409 26.9196 35.7077 26.5881 35.7077H23.654C23.2857 35.7077 23.0033 36.0023 23.0033 36.3583C23.0033 40.1764 25.0781 44.7311 35.01 44.7311C42.1796 44.7188 46.3046 41.8829 46.3046 36.9476V36.9476Z" fill="#F0DB4F"/>
</g>
<defs>
<clipPath id="clip0">
<rect width="55" height="62.8571" fill="white" transform="translate(0.5 0.375)"/>
</clipPath>
</defs>
</svg>
