<svg width="40" height="40" viewBox="0 0 40 40" fill="none" xmlns="http://www.w3.org/2000/svg">
<path d="M20 21.7167C21.6431 21.7167 22.975 20.3847 22.975 18.7417C22.975 17.0986 21.6431 15.7667 20 15.7667C18.357 15.7667 17.025 17.0986 17.025 18.7417C17.025 20.3847 18.357 21.7167 20 21.7167Z" fill="#61DBFB"/>
<path d="M11.67 24.6567L11.0116 24.4883C6.12165 23.2533 3.31665 21.1533 3.31665 18.735C3.31665 16.315 6.12332 14.2167 11.0116 12.9817L11.67 12.815L11.855 13.4667C12.3492 15.1728 12.9824 16.8356 13.7483 18.4383L13.89 18.735L13.7483 19.0317C12.9816 20.6367 12.3466 22.3 11.855 24.0067L11.67 24.6567V24.6567ZM10.7083 14.4983C6.99332 15.545 4.71165 17.1417 4.71165 18.735C4.71165 20.325 6.99165 21.9233 10.7083 22.9683C11.1633 21.5217 11.7133 20.1067 12.35 18.735C11.7087 17.361 11.1603 15.9457 10.7083 14.4983V14.4983ZM28.3283 24.6567L28.145 24.0033C27.6494 22.2968 27.0157 20.6336 26.25 19.03L26.1083 18.735L26.25 18.4367C27.0166 16.835 27.6483 15.17 28.145 13.4633L28.3283 12.8133L28.9866 12.98C33.8783 14.215 36.6816 16.3133 36.6816 18.735C36.6816 21.155 33.8766 23.2533 28.9866 24.4883L28.3283 24.6567V24.6567ZM27.645 18.735C28.3116 20.1783 28.8666 21.5983 29.29 22.9683C33.0066 21.9233 35.2883 20.325 35.2883 18.735C35.2883 17.1417 33.0083 15.5467 29.29 14.4983C28.8354 15.9452 28.2859 17.3605 27.645 18.735V18.735Z" fill="#61DBFB"/>
<path d="M10.6983 14.4917L10.515 13.8417C9.13835 8.995 9.55502 5.52334 11.66 4.31334C13.7183 3.12167 17.03 4.53 20.4983 8.08834L20.9717 8.575L20.4983 9.06C19.2665 10.3411 18.1406 11.7201 17.1317 13.1833L16.9433 13.4533L16.6167 13.48C14.8427 13.6193 13.0829 13.9031 11.355 14.3283L10.6983 14.4917V14.4917ZM13.335 5.27667C12.9617 5.27667 12.6317 5.35834 12.3533 5.51834C10.9733 6.31334 10.73 9.08167 11.68 12.8183C13.165 12.49 14.6634 12.255 16.1734 12.1233C17.0475 10.8834 18.0012 9.7015 19.0283 8.585C16.8567 6.47334 14.8067 5.27667 13.335 5.27667V5.27667ZM26.6633 33.5833C24.6833 33.5833 22.14 32.09 19.5 29.38L19.0283 28.895L19.5 28.4117C20.7321 27.1285 21.8585 25.7479 22.8683 24.2833L23.055 24.0167L23.3783 23.985C25.153 23.8481 26.9134 23.5655 28.6417 23.14L29.3 22.9733L29.485 23.625C30.855 28.4683 30.44 31.945 28.3383 33.155C27.8281 33.4443 27.2498 33.5921 26.6633 33.5833V33.5833ZM20.9717 28.8833C23.1417 30.995 25.1933 32.1933 26.6633 32.1933C27.0383 32.1933 27.3683 32.11 27.645 31.9517C29.0267 31.155 29.2717 28.3817 28.3183 24.645C26.835 24.975 25.335 25.2117 23.8217 25.3433C22.9512 26.5852 21.9991 27.7678 20.9717 28.8833V28.8833Z" fill="#61DBFB"/>
<path d="M29.3 14.4917L28.6417 14.3267C26.9135 13.9001 25.1531 13.6163 23.3784 13.4783L23.055 13.45L22.8684 13.18C21.8599 11.716 20.7334 10.3369 19.5 9.05667L19.0284 8.57167L19.5 8.08834C22.9667 4.53167 26.2767 3.12334 28.3384 4.31334C30.4417 5.52501 30.86 8.99667 29.485 13.8417L29.3 14.4917ZM23.8217 12.1233C25.4117 12.265 26.9184 12.5033 28.3184 12.8183C29.27 9.08167 29.0267 6.31334 27.645 5.51667C26.2717 4.72167 23.6867 5.93834 20.9717 8.58501C21.9984 9.70167 22.9517 10.8817 23.8217 12.1233ZM13.335 33.5833C12.7486 33.5917 12.1705 33.4439 11.66 33.155C9.55503 31.945 9.13837 28.47 10.5134 23.625L10.6934 22.9733L11.3517 23.14C12.9584 23.545 14.7284 23.83 16.615 23.985L16.9384 24.0167L17.1267 24.2833C18.1334 25.7467 19.26 27.1283 20.4934 28.4117L20.9667 28.895L20.4934 29.38C17.855 32.0917 15.3117 33.5833 13.335 33.5833V33.5833ZM11.68 24.6467C10.73 28.3833 10.9734 31.1567 12.3534 31.9533C13.7284 32.7367 16.305 31.5283 19.0284 28.8833C18.0016 27.7665 17.048 26.5846 16.1734 25.345C14.6619 25.2113 13.1608 24.9781 11.68 24.6467V24.6467Z" fill="#61DBFB"/>
<path d="M20 25.5217C18.855 25.5217 17.68 25.4733 16.5 25.375L16.1733 25.3467L15.985 25.0767C15.3196 24.1198 14.6935 23.1362 14.1083 22.1283C13.5275 21.1177 12.9876 20.0841 12.49 19.03L12.35 18.735L12.49 18.4367C12.9883 17.3833 13.5266 16.35 14.1083 15.34C14.6866 14.3467 15.3183 13.3533 15.985 12.39L16.1733 12.1233L16.5 12.0933C18.8281 11.8983 21.1685 11.8983 23.4966 12.0933L23.82 12.125L24.0083 12.3917C25.3413 14.3063 26.512 16.3288 27.5083 18.4383L27.6466 18.7367L27.5083 19.0317C26.5148 21.1426 25.3439 23.1654 24.0083 25.0783L23.82 25.3483L23.4966 25.3767C22.32 25.4717 21.1433 25.5217 20 25.5217V25.5217ZM16.9433 24.015C19.0016 24.17 20.9983 24.17 23.055 24.015C24.2031 22.3337 25.2238 20.5688 26.1083 18.735C25.2269 16.8996 24.2061 15.1344 23.055 13.455C21.0208 13.2983 18.9775 13.2983 16.9433 13.455C15.7912 15.1338 14.7704 16.8991 13.89 18.735C14.7764 20.5677 15.797 22.3325 16.9433 24.015V24.015Z" fill="#61DBFB"/>
</svg>
