<svg width="46" height="46" viewBox="0 0 46 46" fill="none" xmlns="http://www.w3.org/2000/svg">
<g clip-path="url(#clip0)">
<path d="M0.5 23V45.5H45.5V0.5H0.5V23ZM36.7616 21.2056C37.8403 21.4596 38.8208 22.0249 39.5811 22.8313C39.9917 23.27 40.6062 24.0758 40.6583 24.2741C40.6723 24.3331 38.7177 25.6437 37.5308 26.3764C37.4872 26.4059 37.3114 26.2231 37.1202 25.9362C36.5422 25.0939 35.9333 24.7283 35.0037 24.6622C33.6411 24.5736 32.7622 25.2852 32.7692 26.4791C32.7621 26.7712 32.8273 27.0606 32.9591 27.3214C33.26 27.9444 33.8239 28.317 35.5663 29.0722C38.7894 30.4559 40.1661 31.3714 41.0225 32.668C41.9816 34.1178 42.1939 36.4325 41.5498 38.1608C40.8327 40.0283 39.0594 41.3023 36.5689 41.72C35.7997 41.8592 33.9688 41.8367 33.1405 41.6834C31.332 41.3614 29.6178 40.467 28.5631 39.2956C28.1455 38.8414 27.3397 37.6475 27.3917 37.5673C27.4142 37.5378 27.597 37.4211 27.8023 37.303L29.473 36.3355L30.7695 35.5817L31.0409 35.9839C31.422 36.5619 32.2489 37.3536 32.7481 37.6166C34.1839 38.3787 36.1541 38.2691 37.1286 37.3972C37.5238 37.0681 37.7445 36.5619 37.715 36.05C37.715 35.5297 37.6489 35.2962 37.3775 34.9067C37.0259 34.4089 36.3158 33.9842 34.2866 33.1053C31.9648 32.1013 30.9608 31.4867 30.0538 30.4981C29.4828 29.8474 29.0605 29.0801 28.8162 28.2495C28.6475 27.6125 28.6039 26.015 28.7361 25.378C29.2128 23.1294 30.9116 21.5698 33.35 21.1086C34.1417 20.9553 35.9867 21.013 36.763 21.2042L36.7616 21.2056ZM26.2006 23.0886L26.2147 24.9266H20.3548V41.5752H16.2092V24.9266H10.3578V23.1252C10.3578 22.1211 10.3803 21.2872 10.4084 21.2647C10.4309 21.2352 13.9902 21.2211 18.3116 21.2281L26.1781 21.2506L26.2006 23.0886Z" fill="#007ACC"/>
</g>
<defs>
<clipPath id="clip0">
<rect width="45" height="45" fill="white" transform="translate(0.5 0.5)"/>
</clipPath>
</defs>
</svg>
