<svg width="300" height="32" viewBox="0 0 300 32" fill="none" xmlns="http://www.w3.org/2000/svg">
<path d="M4.0545 16.032L15.4145 20.704L14.5825 23.168L0.7585 17.312V14.752L14.5825 8.89601L15.4145 11.36L4.0545 16.032ZM272.866 31.52H269.826L280.674 0.544004H283.65L272.866 31.52ZM284.571 11.36L285.403 8.89601L299.227 14.752V17.312L285.403 23.168L284.571 20.704L295.931 16.032L284.571 11.36Z" fill="#8257E6"/>
<path d="M29.829 22.528C29.6157 22.016 29.3277 21.3653 28.965 20.576C28.6237 19.7867 28.2503 18.9333 27.845 18.016C27.4397 17.0987 27.0023 16.16 26.533 15.2C26.085 14.2187 25.6583 13.3013 25.253 12.448C24.8477 11.5733 24.4637 10.7947 24.101 10.112C23.7597 9.42934 23.4823 8.90667 23.269 8.544C23.0343 11.0613 22.8423 13.792 22.693 16.736C22.5437 19.6587 22.4157 22.6133 22.309 25.6H19.269C19.3543 23.68 19.4503 21.7493 19.557 19.808C19.6637 17.8453 19.781 15.9253 19.909 14.048C20.0583 12.1493 20.2077 10.304 20.357 8.512C20.5277 6.72001 20.709 5.02401 20.901 3.42401H23.621C24.197 4.36267 24.8157 5.472 25.477 6.752C26.1383 8.032 26.7997 9.376 27.461 10.784C28.1223 12.1707 28.7623 13.568 29.381 14.976C29.9997 16.3627 30.565 17.632 31.077 18.784C31.589 17.632 32.1543 16.3627 32.773 14.976C33.3917 13.568 34.0317 12.1707 34.693 10.784C35.3543 9.376 36.0157 8.032 36.677 6.752C37.3383 5.472 37.957 4.36267 38.533 3.42401H41.253C41.9783 10.5707 42.5223 17.9627 42.885 25.6H39.845C39.7383 22.6133 39.6103 19.6587 39.461 16.736C39.3117 13.792 39.1197 11.0613 38.885 8.544C38.6717 8.90667 38.3837 9.42934 38.021 10.112C37.6797 10.7947 37.3063 11.5733 36.901 12.448C36.4957 13.3013 36.0583 14.2187 35.589 15.2C35.141 16.16 34.7143 17.0987 34.309 18.016C33.9037 18.9333 33.5197 19.7867 33.157 20.576C32.8157 21.3653 32.5383 22.016 32.325 22.528H29.829ZM53.192 23.456C53.896 23.456 54.5147 23.4453 55.048 23.424C55.6027 23.3813 56.0613 23.3173 56.424 23.232V18.272C56.2107 18.1653 55.8587 18.08 55.368 18.016C54.8987 17.9307 54.3227 17.888 53.64 17.888C53.192 17.888 52.712 17.92 52.2 17.984C51.7093 18.048 51.2507 18.1867 50.824 18.4C50.4187 18.592 50.0773 18.8693 49.8 19.232C49.5227 19.5733 49.384 20.032 49.384 20.608C49.384 21.6747 49.7253 22.4213 50.408 22.848C51.0907 23.2533 52.0187 23.456 53.192 23.456ZM52.936 8.544C54.1307 8.544 55.1333 8.704 55.944 9.02401C56.776 9.32267 57.4373 9.76001 57.928 10.336C58.44 10.8907 58.8027 11.5627 59.016 12.352C59.2293 13.12 59.336 13.9733 59.336 14.912V25.312C59.08 25.3547 58.7173 25.4187 58.248 25.504C57.8 25.568 57.288 25.632 56.712 25.696C56.136 25.76 55.5067 25.8133 54.824 25.856C54.1627 25.92 53.5013 25.952 52.84 25.952C51.9013 25.952 51.0373 25.856 50.248 25.664C49.4587 25.472 48.776 25.1733 48.2 24.768C47.624 24.3413 47.176 23.7867 46.856 23.104C46.536 22.4213 46.376 21.6 46.376 20.64C46.376 19.7227 46.5573 18.9333 46.92 18.272C47.304 17.6107 47.816 17.0773 48.456 16.672C49.096 16.2667 49.8427 15.968 50.696 15.776C51.5493 15.584 52.4453 15.488 53.384 15.488C53.6827 15.488 53.992 15.5093 54.312 15.552C54.632 15.5733 54.9307 15.616 55.208 15.68C55.5067 15.7227 55.7627 15.7653 55.976 15.808C56.1893 15.8507 56.3387 15.8827 56.424 15.904V15.072C56.424 14.5813 56.3707 14.1013 56.264 13.632C56.1573 13.1413 55.9653 12.7147 55.688 12.352C55.4107 11.968 55.0267 11.6693 54.536 11.456C54.0667 11.2213 53.448 11.104 52.68 11.104C51.6987 11.104 50.8347 11.1787 50.088 11.328C49.3627 11.456 48.8187 11.5947 48.456 11.744L48.104 9.28C48.488 9.10934 49.128 8.94934 50.024 8.8C50.92 8.62934 51.8907 8.544 52.936 8.544ZM67.0628 8.96H73.3668V11.456H67.0628V19.136C67.0628 19.968 67.1268 20.6613 67.2548 21.216C67.3828 21.7493 67.5748 22.176 67.8308 22.496C68.0868 22.7947 68.4068 23.008 68.7908 23.136C69.1748 23.264 69.6228 23.328 70.1348 23.328C71.0308 23.328 71.7454 23.232 72.2788 23.04C72.8334 22.8267 73.2174 22.6773 73.4308 22.592L74.0068 25.056C73.7081 25.2053 73.1854 25.3867 72.4388 25.6C71.6921 25.8347 70.8388 25.952 69.8788 25.952C68.7481 25.952 67.8094 25.8133 67.0628 25.536C66.3374 25.2373 65.7508 24.8 65.3028 24.224C64.8548 23.648 64.5348 22.944 64.3428 22.112C64.1721 21.2587 64.0868 20.2773 64.0868 19.168V4.32001L67.0628 3.808V8.96ZM77.1538 25.6V1.28L80.1298 0.768005V9.28C80.6844 9.06667 81.2711 8.90667 81.8898 8.8C82.5298 8.67201 83.1591 8.60801 83.7778 8.60801C85.1004 8.60801 86.1991 8.80001 87.0738 9.18401C87.9484 9.54667 88.6418 10.0693 89.1538 10.752C89.6871 11.4133 90.0604 12.2133 90.2738 13.152C90.4871 14.0907 90.5938 15.1253 90.5938 16.256V25.6H87.6178V16.896C87.6178 15.872 87.5431 14.9973 87.3938 14.272C87.2658 13.5467 87.0418 12.96 86.7218 12.512C86.4018 12.064 85.9751 11.744 85.4418 11.552C84.9084 11.3387 84.2471 11.232 83.4578 11.232C83.1378 11.232 82.8071 11.2533 82.4658 11.296C82.1244 11.3387 81.7938 11.392 81.4738 11.456C81.1751 11.4987 80.8978 11.552 80.6418 11.616C80.4071 11.68 80.2364 11.7333 80.1298 11.776V25.6H77.1538ZM94.507 17.312C94.507 15.84 94.7203 14.56 95.147 13.472C95.5737 12.3627 96.139 11.4453 96.843 10.72C97.547 9.99467 98.3577 9.45067 99.275 9.08801C100.192 8.72534 101.131 8.544 102.091 8.544C104.331 8.544 106.048 9.248 107.243 10.656C108.438 12.0427 109.035 14.1653 109.035 17.024C109.035 17.152 109.035 17.3227 109.035 17.536C109.035 17.728 109.024 17.9093 109.003 18.08H97.611C97.739 19.808 98.2403 21.12 99.115 22.016C99.9897 22.912 101.355 23.36 103.211 23.36C104.256 23.36 105.131 23.2747 105.835 23.104C106.56 22.912 107.104 22.7307 107.467 22.56L107.883 25.056C107.52 25.248 106.88 25.4507 105.963 25.664C105.067 25.8773 104.043 25.984 102.891 25.984C101.44 25.984 100.182 25.7707 99.115 25.344C98.0697 24.896 97.2057 24.288 96.523 23.52C95.8403 22.752 95.3283 21.8453 94.987 20.8C94.667 19.7333 94.507 18.5707 94.507 17.312ZM105.931 15.68C105.952 14.336 105.611 13.2373 104.907 12.384C104.224 11.5093 103.275 11.072 102.059 11.072C101.376 11.072 100.768 11.2107 100.235 11.488C99.723 11.744 99.2857 12.0853 98.923 12.512C98.5603 12.9387 98.2723 13.4293 98.059 13.984C97.867 14.5387 97.739 15.104 97.675 15.68H105.931ZM126.558 25.12C125.875 25.2907 124.969 25.472 123.838 25.664C122.729 25.856 121.438 25.952 119.966 25.952C118.686 25.952 117.609 25.7707 116.734 25.408C115.859 25.024 115.155 24.4907 114.622 23.808C114.089 23.1253 113.705 22.3253 113.47 21.408C113.235 20.4693 113.118 19.4347 113.118 18.304V8.96H116.094V17.664C116.094 19.6907 116.414 21.1413 117.054 22.016C117.694 22.8907 118.771 23.328 120.286 23.328C120.606 23.328 120.937 23.3173 121.278 23.296C121.619 23.2747 121.939 23.2533 122.238 23.232C122.537 23.1893 122.803 23.1573 123.038 23.136C123.294 23.0933 123.475 23.0507 123.582 23.008V8.96H126.558V25.12ZM135.557 23.456C136.773 23.456 137.669 23.296 138.245 22.976C138.842 22.656 139.141 22.144 139.141 21.44C139.141 20.7147 138.853 20.1387 138.277 19.712C137.701 19.2853 136.752 18.8053 135.429 18.272C134.789 18.016 134.17 17.76 133.573 17.504C132.997 17.2267 132.496 16.9067 132.069 16.544C131.642 16.1813 131.301 15.744 131.045 15.232C130.789 14.72 130.661 14.0907 130.661 13.344C130.661 11.872 131.205 10.7093 132.293 9.85601C133.381 8.98134 134.864 8.544 136.741 8.544C137.21 8.544 137.68 8.576 138.149 8.64001C138.618 8.68267 139.056 8.74667 139.461 8.832C139.866 8.896 140.218 8.97067 140.517 9.05601C140.837 9.14134 141.082 9.21601 141.253 9.28L140.709 11.84C140.389 11.6693 139.888 11.4987 139.205 11.328C138.522 11.136 137.701 11.04 136.741 11.04C135.909 11.04 135.184 11.2107 134.565 11.552C133.946 11.872 133.637 12.384 133.637 13.088C133.637 13.4507 133.701 13.7707 133.829 14.048C133.978 14.3253 134.192 14.5813 134.469 14.816C134.768 15.0293 135.13 15.232 135.557 15.424C135.984 15.616 136.496 15.8187 137.093 16.032C137.882 16.3307 138.586 16.6293 139.205 16.928C139.824 17.2053 140.346 17.536 140.773 17.92C141.221 18.304 141.562 18.7733 141.797 19.328C142.032 19.8613 142.149 20.5227 142.149 21.312C142.149 22.848 141.573 24.0107 140.421 24.8C139.29 25.5893 137.669 25.984 135.557 25.984C134.085 25.984 132.933 25.856 132.101 25.6C131.269 25.3653 130.704 25.184 130.405 25.056L130.949 22.496C131.29 22.624 131.834 22.816 132.581 23.072C133.328 23.328 134.32 23.456 135.557 23.456ZM163.101 26.08C161.543 26.08 160.125 25.824 158.845 25.312C157.565 24.8 156.466 24.0533 155.549 23.072C154.631 22.0907 153.917 20.8853 153.405 19.456C152.914 18.0053 152.669 16.352 152.669 14.496C152.669 12.64 152.946 10.9973 153.501 9.568C154.077 8.11734 154.845 6.90134 155.805 5.92001C156.765 4.93867 157.885 4.19201 159.165 3.68C160.445 3.168 161.81 2.912 163.261 2.912C164.178 2.912 164.999 2.976 165.725 3.10401C166.471 3.23201 167.111 3.38134 167.645 3.55201C168.199 3.72267 168.647 3.89334 168.989 4.064C169.33 4.23467 169.565 4.36267 169.693 4.44801L168.797 7.00801C168.605 6.88001 168.327 6.74134 167.965 6.592C167.602 6.44267 167.186 6.29334 166.717 6.144C166.269 5.99467 165.767 5.87734 165.213 5.79201C164.679 5.68534 164.135 5.63201 163.581 5.63201C162.407 5.63201 161.351 5.83467 160.413 6.24001C159.474 6.64534 158.674 7.23201 158.013 8.00001C157.351 8.76801 156.839 9.70667 156.477 10.816C156.135 11.904 155.965 13.1307 155.965 14.496C155.965 15.8187 156.114 17.024 156.413 18.112C156.733 19.2 157.202 20.1387 157.821 20.928C158.439 21.696 159.207 22.2933 160.125 22.72C161.063 23.1467 162.151 23.36 163.389 23.36C164.818 23.36 166.002 23.2107 166.941 22.912C167.879 22.6133 168.583 22.3467 169.053 22.112L169.853 24.672C169.703 24.7787 169.437 24.9173 169.053 25.088C168.669 25.2373 168.189 25.3867 167.613 25.536C167.037 25.6853 166.365 25.8133 165.597 25.92C164.829 26.0267 163.997 26.08 163.101 26.08ZM178.848 23.456C179.552 23.456 180.171 23.4453 180.704 23.424C181.259 23.3813 181.718 23.3173 182.08 23.232V18.272C181.867 18.1653 181.515 18.08 181.024 18.016C180.555 17.9307 179.979 17.888 179.296 17.888C178.848 17.888 178.368 17.92 177.856 17.984C177.366 18.048 176.907 18.1867 176.48 18.4C176.075 18.592 175.734 18.8693 175.456 19.232C175.179 19.5733 175.04 20.032 175.04 20.608C175.04 21.6747 175.382 22.4213 176.064 22.848C176.747 23.2533 177.675 23.456 178.848 23.456ZM178.592 8.544C179.787 8.544 180.79 8.704 181.6 9.02401C182.432 9.32267 183.094 9.76001 183.584 10.336C184.096 10.8907 184.459 11.5627 184.672 12.352C184.886 13.12 184.992 13.9733 184.992 14.912V25.312C184.736 25.3547 184.374 25.4187 183.904 25.504C183.456 25.568 182.944 25.632 182.368 25.696C181.792 25.76 181.163 25.8133 180.48 25.856C179.819 25.92 179.158 25.952 178.496 25.952C177.558 25.952 176.694 25.856 175.904 25.664C175.115 25.472 174.432 25.1733 173.856 24.768C173.28 24.3413 172.832 23.7867 172.512 23.104C172.192 22.4213 172.032 21.6 172.032 20.64C172.032 19.7227 172.214 18.9333 172.576 18.272C172.96 17.6107 173.472 17.0773 174.112 16.672C174.752 16.2667 175.499 15.968 176.352 15.776C177.206 15.584 178.102 15.488 179.04 15.488C179.339 15.488 179.648 15.5093 179.968 15.552C180.288 15.5733 180.587 15.616 180.864 15.68C181.163 15.7227 181.419 15.7653 181.632 15.808C181.846 15.8507 181.995 15.8827 182.08 15.904V15.072C182.08 14.5813 182.027 14.1013 181.92 13.632C181.814 13.1413 181.622 12.7147 181.344 12.352C181.067 11.968 180.683 11.6693 180.192 11.456C179.723 11.2213 179.104 11.104 178.336 11.104C177.355 11.104 176.491 11.1787 175.744 11.328C175.019 11.456 174.475 11.5947 174.112 11.744L173.76 9.28C174.144 9.10934 174.784 8.94934 175.68 8.8C176.576 8.62934 177.547 8.544 178.592 8.544ZM196.079 8.60801C196.335 8.60801 196.623 8.62934 196.943 8.672C197.284 8.69334 197.615 8.73601 197.935 8.8C198.255 8.84267 198.543 8.89601 198.799 8.96C199.076 9.00267 199.279 9.04534 199.407 9.08801L198.895 11.68C198.66 11.5947 198.266 11.4987 197.711 11.392C197.178 11.264 196.484 11.2 195.631 11.2C195.076 11.2 194.522 11.264 193.967 11.392C193.434 11.4987 193.082 11.5733 192.911 11.616V25.6H189.935V9.66401C190.639 9.408 191.514 9.17334 192.559 8.96C193.604 8.72534 194.778 8.60801 196.079 8.60801ZM213.031 12.48C212.668 12.1813 212.145 11.8933 211.463 11.616C210.78 11.3387 210.033 11.2 209.223 11.2C208.369 11.2 207.633 11.36 207.015 11.68C206.417 11.9787 205.927 12.4053 205.543 12.96C205.159 13.4933 204.881 14.1333 204.711 14.88C204.54 15.6267 204.455 16.4267 204.455 17.28C204.455 19.2213 204.935 20.7253 205.895 21.792C206.855 22.8373 208.135 23.36 209.735 23.36C210.545 23.36 211.217 23.328 211.751 23.264C212.305 23.1787 212.732 23.0933 213.031 23.008V12.48ZM213.031 1.28L216.007 0.768005V25.12C215.324 25.312 214.449 25.504 213.383 25.696C212.316 25.888 211.089 25.984 209.703 25.984C208.423 25.984 207.271 25.7813 206.247 25.376C205.223 24.9707 204.348 24.3947 203.623 23.648C202.897 22.9013 202.332 21.9947 201.927 20.928C201.543 19.84 201.351 18.624 201.351 17.28C201.351 16 201.511 14.8267 201.831 13.76C202.172 12.6933 202.663 11.776 203.303 11.008C203.943 10.24 204.721 9.64267 205.639 9.21601C206.577 8.78934 207.644 8.57601 208.839 8.57601C209.799 8.57601 210.641 8.70401 211.367 8.96C212.113 9.21601 212.668 9.46134 213.031 9.69601V1.28ZM235.811 17.28C235.811 18.6027 235.619 19.7973 235.235 20.864C234.851 21.9307 234.307 22.848 233.603 23.616C232.92 24.384 232.099 24.9813 231.139 25.408C230.179 25.8133 229.133 26.016 228.003 26.016C226.872 26.016 225.827 25.8133 224.867 25.408C223.907 24.9813 223.075 24.384 222.371 23.616C221.688 22.848 221.155 21.9307 220.771 20.864C220.387 19.7973 220.195 18.6027 220.195 17.28C220.195 15.9787 220.387 14.7947 220.771 13.728C221.155 12.64 221.688 11.712 222.371 10.944C223.075 10.176 223.907 9.58934 224.867 9.18401C225.827 8.75734 226.872 8.544 228.003 8.544C229.133 8.544 230.179 8.75734 231.139 9.18401C232.099 9.58934 232.92 10.176 233.603 10.944C234.307 11.712 234.851 12.64 235.235 13.728C235.619 14.7947 235.811 15.9787 235.811 17.28ZM232.707 17.28C232.707 15.4027 232.28 13.92 231.427 12.832C230.595 11.7227 229.453 11.168 228.003 11.168C226.552 11.168 225.4 11.7227 224.547 12.832C223.715 13.92 223.299 15.4027 223.299 17.28C223.299 19.1573 223.715 20.6507 224.547 21.76C225.4 22.848 226.552 23.392 228.003 23.392C229.453 23.392 230.595 22.848 231.427 21.76C232.28 20.6507 232.707 19.1573 232.707 17.28ZM243.87 23.456C245.086 23.456 245.982 23.296 246.558 22.976C247.155 22.656 247.454 22.144 247.454 21.44C247.454 20.7147 247.166 20.1387 246.59 19.712C246.014 19.2853 245.064 18.8053 243.742 18.272C243.102 18.016 242.483 17.76 241.886 17.504C241.31 17.2267 240.808 16.9067 240.382 16.544C239.955 16.1813 239.614 15.744 239.358 15.232C239.102 14.72 238.974 14.0907 238.974 13.344C238.974 11.872 239.518 10.7093 240.606 9.85601C241.694 8.98134 243.176 8.544 245.054 8.544C245.523 8.544 245.992 8.576 246.462 8.64001C246.931 8.68267 247.368 8.74667 247.774 8.832C248.179 8.896 248.531 8.97067 248.83 9.05601C249.15 9.14134 249.395 9.21601 249.566 9.28L249.022 11.84C248.702 11.6693 248.2 11.4987 247.518 11.328C246.835 11.136 246.014 11.04 245.054 11.04C244.222 11.04 243.496 11.2107 242.878 11.552C242.259 11.872 241.95 12.384 241.95 13.088C241.95 13.4507 242.014 13.7707 242.141 14.048C242.291 14.3253 242.504 14.5813 242.782 14.816C243.08 15.0293 243.443 15.232 243.87 15.424C244.296 15.616 244.808 15.8187 245.406 16.032C246.195 16.3307 246.899 16.6293 247.518 16.928C248.136 17.2053 248.659 17.536 249.086 17.92C249.534 18.304 249.875 18.7733 250.11 19.328C250.344 19.8613 250.462 20.5227 250.462 21.312C250.462 22.848 249.886 24.0107 248.734 24.8C247.603 25.5893 245.982 25.984 243.87 25.984C242.398 25.984 241.246 25.856 240.414 25.6C239.582 25.3653 239.016 25.184 238.718 25.056L239.262 22.496C239.603 22.624 240.147 22.816 240.894 23.072C241.64 23.328 242.632 23.456 243.87 23.456ZM268.967 17.28C268.967 18.6027 268.775 19.7973 268.391 20.864C268.007 21.9307 267.463 22.848 266.759 23.616C266.076 24.384 265.255 24.9813 264.295 25.408C263.335 25.8133 262.289 26.016 261.159 26.016C260.028 26.016 258.983 25.8133 258.023 25.408C257.063 24.9813 256.231 24.384 255.527 23.616C254.844 22.848 254.311 21.9307 253.927 20.864C253.543 19.7973 253.351 18.6027 253.351 17.28C253.351 15.9787 253.543 14.7947 253.927 13.728C254.311 12.64 254.844 11.712 255.527 10.944C256.231 10.176 257.063 9.58934 258.023 9.18401C258.983 8.75734 260.028 8.544 261.159 8.544C262.289 8.544 263.335 8.75734 264.295 9.18401C265.255 9.58934 266.076 10.176 266.759 10.944C267.463 11.712 268.007 12.64 268.391 13.728C268.775 14.7947 268.967 15.9787 268.967 17.28ZM265.863 17.28C265.863 15.4027 265.436 13.92 264.583 12.832C263.751 11.7227 262.609 11.168 261.159 11.168C259.708 11.168 258.556 11.7227 257.703 12.832C256.871 13.92 256.455 15.4027 256.455 17.28C256.455 19.1573 256.871 20.6507 257.703 21.76C258.556 22.848 259.708 23.392 261.159 23.392C262.609 23.392 263.751 22.848 264.583 21.76C265.436 20.6507 265.863 19.1573 265.863 17.28Z" fill="#E1E1E6"/>
</svg>
